<svg width="30" height="30" viewBox="0 0 30 30" fill="none" xmlns="http://www.w3.org/2000/svg">
<path fill-rule="evenodd" clip-rule="evenodd" d="M20.629 7.49534H22.9221C23.8431 7.49534 24.5898 8.242 24.5898 9.16304V23.3386C24.5898 24.2596 23.8431 25.0063 22.9221 25.0063H7.07884C6.15779 25.0063 5.41113 24.2596 5.41113 23.3386V9.16304C5.41113 8.242 6.15779 7.49534 7.07884 7.49534H8.32962C8.55988 7.49534 8.74655 7.682 8.74655 7.91226V9.78844C8.74655 10.1338 9.02655 10.4138 9.37194 10.4138C9.71733 10.4138 9.99733 10.1338 9.99733 9.78844V5.82763C9.99733 5.3671 10.3707 4.99377 10.8312 4.99377C11.2917 4.99377 11.665 5.3671 11.665 5.82763V7.28771C11.6655 7.40251 11.7587 7.49534 11.8735 7.49534H17.0851C17.3154 7.49534 17.502 7.682 17.502 7.91226V9.78844C17.502 10.1338 17.782 10.4138 18.1274 10.4138C18.4728 10.4138 18.7528 10.1338 18.7528 9.78844V5.82763C18.7528 5.3671 19.1261 4.99377 19.5867 4.99377C20.0472 4.99377 20.4205 5.3671 20.4205 5.82763V7.28687C20.4205 7.402 20.5138 7.49534 20.629 7.49534ZM7.49577 23.3386H22.5051C22.7354 23.3386 22.9221 23.1519 22.9221 22.9216V12.9154C22.9221 12.6851 22.7354 12.4985 22.5051 12.4985H7.49577C7.26551 12.4985 7.07884 12.6851 7.07884 12.9154V22.9216C7.07884 23.1519 7.26551 23.3386 7.49577 23.3386Z" fill="#F8CB1C"/>
<mask id="mask0" mask-type="alpha" maskUnits="userSpaceOnUse" x="5" y="4" width="20" height="22">
<path fill-rule="evenodd" clip-rule="evenodd" d="M20.629 7.49534H22.9221C23.8431 7.49534 24.5898 8.242 24.5898 9.16304V23.3386C24.5898 24.2596 23.8431 25.0063 22.9221 25.0063H7.07884C6.15779 25.0063 5.41113 24.2596 5.41113 23.3386V9.16304C5.41113 8.242 6.15779 7.49534 7.07884 7.49534H8.32962C8.55988 7.49534 8.74655 7.682 8.74655 7.91226V9.78844C8.74655 10.1338 9.02655 10.4138 9.37194 10.4138C9.71733 10.4138 9.99733 10.1338 9.99733 9.78844V5.82763C9.99733 5.3671 10.3707 4.99377 10.8312 4.99377C11.2917 4.99377 11.665 5.3671 11.665 5.82763V7.28771C11.6655 7.40251 11.7587 7.49534 11.8735 7.49534H17.0851C17.3154 7.49534 17.502 7.682 17.502 7.91226V9.78844C17.502 10.1338 17.782 10.4138 18.1274 10.4138C18.4728 10.4138 18.7528 10.1338 18.7528 9.78844V5.82763C18.7528 5.3671 19.1261 4.99377 19.5867 4.99377C20.0472 4.99377 20.4205 5.3671 20.4205 5.82763V7.28687C20.4205 7.402 20.5138 7.49534 20.629 7.49534ZM7.49577 23.3386H22.5051C22.7354 23.3386 22.9221 23.1519 22.9221 22.9216V12.9154C22.9221 12.6851 22.7354 12.4985 22.5051 12.4985H7.49577C7.26551 12.4985 7.07884 12.6851 7.07884 12.9154V22.9216C7.07884 23.1519 7.26551 23.3386 7.49577 23.3386Z" fill="white"/>
</mask>
<g mask="url(#mask0)">
</g>
</svg>
