<svg width="230" height="48" viewBox="0 0 230 48" fill="none" xmlns="http://www.w3.org/2000/svg">
<path d="M57.6648 26.3369C58.4046 23.3074 58.1782 19.9286 57.9342 17.9575C57.8316 17.1309 56.8997 16.6922 56.1954 17.141C55.0544 17.869 53.4492 19.018 52.1063 20.4482C53.2197 19.0467 56.6085 14.4048 56.0374 10.4572C55.5914 7.37247 54.1189 4.3231 53.1554 2.58591C52.7511 1.85619 51.7215 1.7956 51.2364 2.47446C49.8119 4.46772 47.4886 8.31094 47.9679 11.623C48.3815 14.4818 49.688 17.2737 50.6524 19.0286C49.1377 16.8372 47.1447 15.0328 45.8435 13.9767C45.2008 13.4548 44.232 13.7702 44.0252 14.5702C43.4212 16.9124 42.6468 21.2947 44.2973 24.2105C45.6571 26.6133 47.7566 28.6994 49.2811 30.028C49.3197 30.9421 49.4005 31.774 49.487 32.4613L49.5265 32.4516C48.6345 32.8447 47.8161 33.3524 47.1593 34.0083C45.4889 35.6765 44.2107 37.794 43.3458 39.5069L41.0505 41.1087C37.478 43.3948 33.3316 44.6035 29.0579 44.6035C24.7362 44.6035 20.5504 43.3696 16.9512 41.0349L14.8565 39.5746C13.9911 37.8498 12.701 35.6982 11.0088 34.0079C10.3617 33.3617 9.55715 32.8598 8.68021 32.4688C8.7672 31.7802 8.84841 30.9457 8.88747 30.0275C10.4119 28.699 12.511 26.6133 13.8713 24.2105C15.5217 21.2943 14.7469 16.9124 14.1429 14.5702C13.9365 13.7702 12.9673 13.4548 12.3246 13.9767C11.0354 15.0231 9.06631 16.8045 7.55742 18.9693C8.51645 17.2096 9.78615 14.4636 10.1931 11.6531C10.6724 8.34101 8.3487 4.49779 6.92457 2.50454C6.43906 1.82567 5.4099 1.88626 5.00561 2.61599C4.04213 4.35317 2.56963 7.40254 2.12317 10.4873C1.57908 14.2505 4.63326 18.6447 5.88476 20.2616C4.57957 18.918 3.06401 17.8367 1.97317 17.141C1.26887 16.6917 0.336902 17.1309 0.23483 17.9575C-0.00970031 19.9282 -0.236035 23.3074 0.503769 26.3369C0.966201 28.2311 2.36814 29.9263 3.8624 31.2681L3.94716 31.2893C3.11682 31.1969 2.34906 31.1562 1.71666 31.142C0.879661 31.1235 0.308499 31.9775 0.651552 32.7386C1.46813 34.5487 3.03339 37.5557 5.24259 39.7621C7.23656 41.7531 10.6893 42.374 13.1781 42.5492L15.0207 43.8339C15.0358 43.8446 15.0509 43.8547 15.066 43.8645C19.2261 46.5702 24.0643 48 29.0583 48C33.9991 48 38.7934 46.5985 42.9242 43.9463C42.9424 43.9348 42.9606 43.9224 42.9788 43.91L44.9217 42.554C47.4154 42.386 50.9138 41.7721 52.9264 39.7621C55.1356 37.5557 56.7009 34.5492 57.5174 32.7386C57.8605 31.9775 57.2893 31.1235 56.4523 31.142C55.8372 31.1557 55.0952 31.1942 54.2911 31.2813C55.7911 29.9373 57.201 28.2373 57.6648 26.3369V26.3369ZM6.50652 20.741C6.48654 20.7857 6.46524 20.829 6.44616 20.8741C6.44128 20.868 6.43595 20.8622 6.43063 20.856C6.44838 20.829 6.47367 20.791 6.50652 20.741ZM51.7446 20.8476C51.737 20.8565 51.7295 20.8653 51.7219 20.8741C51.6944 20.8087 51.6638 20.745 51.6345 20.6804C51.6878 20.7627 51.7255 20.8193 51.7446 20.8476Z" fill="#B6922E"/>
<path fill-rule="evenodd" clip-rule="evenodd" d="M12.9685 0C11.7144 0 10.6978 1.02 10.6978 2.27824V22.5546V23.4659H10.7202C11.1933 33.0455 19.0846 40.6667 28.7501 40.6667C38.4155 40.6667 46.3068 33.0455 46.78 23.4659H46.8024V22.5546V2.27824C46.8024 1.02 45.7858 0 44.5317 0H12.9685Z" fill="#34F191"/>
<path fill-rule="evenodd" clip-rule="evenodd" d="M19.7007 6.6665C18.4211 6.6665 17.3838 7.67128 17.3838 8.91073V27.0889C17.3838 28.3284 18.4211 29.3332 19.7007 29.3332H38.468C39.7476 29.3332 40.785 28.3284 40.785 27.0889V8.91073C40.785 7.67128 39.7476 6.6665 38.468 6.6665H19.7007ZM26.8305 24.9569H31.3383C31.5707 24.9569 31.7591 24.7744 31.7591 24.5493V20.5906H35.8461C36.0785 20.5906 36.2669 20.4081 36.2669 20.183V15.8167C36.2669 15.5916 36.0785 15.4091 35.8461 15.4091H31.7591V11.4504C31.7591 11.2253 31.5707 11.0427 31.3383 11.0427H26.8305C26.5981 11.0427 26.4096 11.2253 26.4096 11.4504V15.4091H22.3227C22.0903 15.4091 21.9018 15.5916 21.9018 15.8167V20.183C21.9018 20.4081 22.0903 20.5906 22.3227 20.5906H26.4096V24.5493C26.4096 24.7744 26.5981 24.9569 26.8305 24.9569Z" fill="white"/>
<path d="M89.2928 12.4285H99.4017V17.4475H97.8607V36.2382H89.2003L80.1701 22.4359V31.2192H81.6495V36.2382H71.5405V31.2192H73.0815V17.4475H71.5405V12.4285H82.6665L90.7721 24.7006V17.4475H89.2928V12.4285Z" fill="#16C66D"/>
<path d="M112.111 36.6667C108.885 36.6667 106.389 35.9628 104.622 34.555C102.876 33.1472 102.002 30.8621 102.002 27.6998V17.4475H100.461V12.4285H111.865V17.4475H110.632V29.2605C110.632 29.9338 110.776 30.4337 111.063 30.7601C111.372 31.0662 111.824 31.2192 112.42 31.2192C113.015 31.2192 113.457 31.0662 113.745 30.7601C114.053 30.4337 114.207 29.9338 114.207 29.2605V17.4475H112.974V12.4285H123.545V17.4475H122.004V27.6998C122.004 30.8621 121.152 33.1472 119.446 34.555C117.741 35.9628 115.296 36.6667 112.111 36.6667Z" fill="#16C66D"/>
<path d="M124.663 31.2192H126.204V17.4475H124.663V12.4285H138.809C141.46 12.4285 143.483 12.9691 144.881 14.0505C146.278 15.1318 146.976 16.8864 146.976 19.3143C146.976 20.6813 146.699 21.8646 146.144 22.8644C145.589 23.8641 144.798 24.5578 143.771 24.9454L143.802 25.2514C145.774 25.5575 146.761 26.7612 146.761 28.8627V31.2192H148.209V36.2382H138.439V29.0463C138.439 28.2506 138.316 27.6487 138.069 27.2407C137.843 26.8326 137.474 26.5572 136.96 26.4144C136.467 26.2716 135.758 26.2002 134.833 26.2002V31.2192H136.867V36.2382H124.663V31.2192ZM136.498 22.4665C137.093 22.4665 137.535 22.3135 137.823 22.0074C138.131 21.681 138.285 21.1811 138.285 20.5079V19.4061C138.285 18.7328 138.131 18.2432 137.823 17.9371C137.535 17.6107 137.093 17.4475 136.498 17.4475H134.833V22.4665H136.498Z" fill="#16C66D"/>
<path d="M158.867 36.6667C156.894 36.6667 155.025 36.5034 153.258 36.177C151.511 35.8302 150.165 35.4425 149.22 35.0141V28.9545H156.001C156.001 29.587 156.144 30.046 156.432 30.3317C156.72 30.6173 157.244 30.7601 158.004 30.7601C158.641 30.7601 159.093 30.6683 159.36 30.4847C159.648 30.2807 159.791 29.9848 159.791 29.5972C159.791 29.2707 159.658 28.9953 159.391 28.7709C159.124 28.5261 158.661 28.2812 158.004 28.0364L155.353 27.1183C153.073 26.2614 151.429 25.2514 150.422 24.0885C149.436 22.9256 148.943 21.3546 148.943 19.3755C148.943 16.968 149.734 15.142 151.316 13.8974C152.919 12.6325 155.579 12 159.298 12C161.086 12 162.76 12.1836 164.322 12.5509C165.904 12.8977 167.178 13.367 168.144 13.9586V19.4367H161.98C161.98 18.4166 161.343 17.9065 160.069 17.9065C159.452 17.9065 159.011 17.9881 158.744 18.1514C158.497 18.2942 158.374 18.5594 158.374 18.9471C158.374 19.2939 158.517 19.5693 158.805 19.7734C159.113 19.9774 159.606 20.1916 160.285 20.416L162.966 21.3342C165.144 22.0687 166.726 23.0276 167.712 24.2109C168.719 25.3739 169.222 26.9041 169.222 28.8015C169.222 31.3926 168.339 33.3513 166.572 34.6774C164.825 36.0036 162.257 36.6667 158.867 36.6667Z" fill="#16C66D"/>
<path d="M170.08 36.2382V31.2192H171.621V17.4475H170.08V12.4285H181.791V17.4475H180.25V31.2192H181.791V36.2382H170.08Z" fill="#16C66D"/>
<path d="M206.014 19.8346H200.713V17.4475H198.74V31.2192H200.897V36.2382H187.953V31.2192H190.11V17.4475H188.138V19.8346H182.837V12.4285H206.014V19.8346Z" fill="#16C66D"/>
<path d="M220.538 12.4285H230V17.4475H228.767L222.819 28.0364V31.2192H224.36V36.2382H212.648V31.2192H214.189V28.0364L208.056 17.4475H206.823V12.4285H218.751V17.4475H217.672L219.49 22.1911H219.798L221.617 17.4475H220.538V12.4285Z" fill="#16C66D"/>
</svg>
