<svg width="30" height="30" viewBox="0 0 30 30" fill="none" xmlns="http://www.w3.org/2000/svg">
<path fill-rule="evenodd" clip-rule="evenodd" d="M4.99414 15C4.99414 9.47373 9.47409 4.99377 15.0004 4.99377C20.5242 4.99975 25.0007 9.4762 25.0066 15C25.0066 20.5263 20.5267 25.0063 15.0004 25.0063C9.47409 25.0063 4.99414 20.5263 4.99414 15ZM18.1582 19.4053C18.5004 19.7091 19.0221 19.6862 19.3364 19.3536V19.3544C19.4857 19.1908 19.5638 18.9746 19.5534 18.7535C19.5431 18.5323 19.4452 18.3243 19.2814 18.1753L15.4173 14.6331V10.4138C15.4173 9.9533 15.044 9.57997 14.5835 9.57997C14.1229 9.57997 13.7496 9.9533 13.7496 10.4138V15C13.7504 15.2342 13.8497 15.4572 14.0231 15.6146L18.1582 19.4053Z" fill="#F8CB1C"/>
<mask id="mask0" mask-type="alpha" maskUnits="userSpaceOnUse" x="4" y="4" width="22" height="22">
<path fill-rule="evenodd" clip-rule="evenodd" d="M4.99414 15C4.99414 9.47373 9.47409 4.99377 15.0004 4.99377C20.5242 4.99975 25.0007 9.4762 25.0066 15C25.0066 20.5263 20.5267 25.0063 15.0004 25.0063C9.47409 25.0063 4.99414 20.5263 4.99414 15ZM18.1582 19.4053C18.5004 19.7091 19.0221 19.6862 19.3364 19.3536V19.3544C19.4857 19.1908 19.5638 18.9746 19.5534 18.7535C19.5431 18.5323 19.4452 18.3243 19.2814 18.1753L15.4173 14.6331V10.4138C15.4173 9.9533 15.044 9.57997 14.5835 9.57997C14.1229 9.57997 13.7496 9.9533 13.7496 10.4138V15C13.7504 15.2342 13.8497 15.4572 14.0231 15.6146L18.1582 19.4053Z" fill="white"/>
</mask>
<g mask="url(#mask0)">
</g>
</svg>
